TITLE ""
FILE "1Q_t_1669-1678.mp3" MP3
  TRACK 01 AUDIO
    TITLE "1Q_t_1669-1678_01"
    INDEX 01 00:00:00
  TRACK 02 AUDIO
    TITLE "1Q_t_1669-1678_02"
    INDEX 01 00:01:29
  TRACK 03 AUDIO
    TITLE "1Q_t_1669-1678_03"
    INDEX 01 00:02:01
  TRACK 04 AUDIO
    TITLE "1Q_t_1669-1678_04"
    INDEX 01 00:03:26
  TRACK 05 AUDIO
    TITLE "1Q_t_1669-1678_05"
    INDEX 01 00:03:38
  TRACK 06 AUDIO
    TITLE "1Q_t_1669-1678_06"
    INDEX 01 00:04:53
  TRACK 07 AUDIO
    TITLE "1Q_t_1669-1678_07"
    INDEX 01 00:04:63
  TRACK 08 AUDIO
    TITLE "1Q_t_1669-1678_08"
    INDEX 01 00:08:39
  TRACK 09 AUDIO
    TITLE "1Q_t_1669-1678_09"
    INDEX 01 00:09:15
  TRACK 10 AUDIO
    TITLE "1Q_t_1669-1678_10"
    INDEX 01 00:10:26
  TRACK 11 AUDIO
    TITLE "1Q_t_1669-1678_11"
    INDEX 01 00:10:38
  TRACK 12 AUDIO
    TITLE "1Q_t_1669-1678_12"
    INDEX 01 00:11:47
  TRACK 13 AUDIO
    TITLE "1Q_t_1669-1678_13"
    INDEX 01 00:11:57
  TRACK 14 AUDIO
    TITLE "1Q_t_1669-1678_14"
    INDEX 01 00:15:14
  TRACK 15 AUDIO
    TITLE "1Q_t_1669-1678_15"
    INDEX 01 00:15:61
  TRACK 16 AUDIO
    TITLE "1Q_t_1669-1678_16"
    INDEX 01 00:17:15
  TRACK 17 AUDIO
    TITLE "1Q_t_1669-1678_17"
    INDEX 01 00:17:26
  TRACK 18 AUDIO
    TITLE "1Q_t_1669-1678_18"
    INDEX 01 00:18:69
  TRACK 19 AUDIO
    TITLE "1Q_t_1669-1678_19"
    INDEX 01 00:19:06
  TRACK 20 AUDIO
    TITLE "1Q_t_1669-1678_20"
    INDEX 01 00:23:60
  TRACK 21 AUDIO
    TITLE "1Q_t_1669-1678_21"
    INDEX 01 00:24:32
  TRACK 22 AUDIO
    TITLE "1Q_t_1669-1678_22"
    INDEX 01 00:25:40
  TRACK 23 AUDIO
    TITLE "1Q_t_1669-1678_23"
    INDEX 01 00:25:47
  TRACK 24 AUDIO
    TITLE "1Q_t_1669-1678_24"
    INDEX 01 00:27:29
  TRACK 25 AUDIO
    TITLE "1Q_t_1669-1678_25"
    INDEX 01 00:27:37
  TRACK 26 AUDIO
    TITLE "1Q_t_1669-1678_26"
    INDEX 01 00:31:70
  TRACK 27 AUDIO
    TITLE "1Q_t_1669-1678_27"
    INDEX 01 00:32:44
  TRACK 28 AUDIO
    TITLE "1Q_t_1669-1678_28"
    INDEX 01 00:33:69
  TRACK 29 AUDIO
    TITLE "1Q_t_1669-1678_29"
    INDEX 01 00:34:03
  TRACK 30 AUDIO
    TITLE "1Q_t_1669-1678_30"
    INDEX 01 00:36:18
  TRACK 31 AUDIO
    TITLE "1Q_t_1669-1678_31"
    INDEX 01 00:36:26
  TRACK 32 AUDIO
    TITLE "1Q_t_1669-1678_32"
    INDEX 01 00:41:43
  TRACK 33 AUDIO
    TITLE "1Q_t_1669-1678_33"
    INDEX 01 00:42:19
  TRACK 34 AUDIO
    TITLE "1Q_t_1669-1678_34"
    INDEX 01 00:43:28
  TRACK 35 AUDIO
    TITLE "1Q_t_1669-1678_35"
    INDEX 01 00:43:40
  TRACK 36 AUDIO
    TITLE "1Q_t_1669-1678_36"
    INDEX 01 00:45:09
  TRACK 37 AUDIO
    TITLE "1Q_t_1669-1678_37"
    INDEX 01 00:45:17
  TRACK 38 AUDIO
    TITLE "1Q_t_1669-1678_38"
    INDEX 01 00:50:24
  TRACK 39 AUDIO
    TITLE "1Q_t_1669-1678_39"
    INDEX 01 00:50:73
  TRACK 40 AUDIO
    TITLE "1Q_t_1669-1678_40"
    INDEX 01 00:52:19
  TRACK 41 AUDIO
    TITLE "1Q_t_1669-1678_41"
    INDEX 01 00:52:29
  TRACK 42 AUDIO
    TITLE "1Q_t_1669-1678_42"
    INDEX 01 00:54:49
  TRACK 43 AUDIO
    TITLE "1Q_t_1669-1678_43"
    INDEX 01 00:54:59
  TRACK 44 AUDIO
    TITLE "1Q_t_1669-1678_44"
    INDEX 01 00:58:63
  TRACK 45 AUDIO
    TITLE "1Q_t_1669-1678_45"
    INDEX 01 00:59:35
  TRACK 46 AUDIO
    TITLE "1Q_t_1669-1678_46"
    INDEX 01 01:00:52
  TRACK 47 AUDIO
    TITLE "1Q_t_1669-1678_47"
    INDEX 01 01:00:67
  TRACK 48 AUDIO
    TITLE "1Q_t_1669-1678_48"
    INDEX 01 01:02:49
  TRACK 49 AUDIO
    TITLE "1Q_t_1669-1678_49"
    INDEX 01 01:02:56
  TRACK 50 AUDIO
    TITLE "1Q_t_1669-1678_50"
    INDEX 01 01:07:24
  TRACK 51 AUDIO
    TITLE "1Q_t_1669-1678_51"
    INDEX 01 01:07:71
  TRACK 52 AUDIO
    TITLE "1Q_t_1669-1678_52"
    INDEX 01 01:09:21
  TRACK 53 AUDIO
    TITLE "1Q_t_1669-1678_53"
    INDEX 01 01:09:33
  TRACK 54 AUDIO
    TITLE "1Q_t_1669-1678_54"
    INDEX 01 01:12:31
  TRACK 55 AUDIO
    TITLE "1Q_t_1669-1678_55"
    INDEX 01 01:12:39
  TRACK 56 AUDIO
    TITLE "1Q_t_1669-1678_56"
    INDEX 01 01:16:23
  TRACK 57 AUDIO
    TITLE "1Q_t_1669-1678_57"
    INDEX 01 01:16:72
  TRACK 58 AUDIO
    TITLE "1Q_t_1669-1678_58"
    INDEX 01 01:18:14
  TRACK 59 AUDIO
    TITLE "1Q_t_1669-1678_59"
    INDEX 01 01:18:24
  TRACK 60 AUDIO
    TITLE "1Q_t_1669-1678_60"
    INDEX 01 01:19:53
  TRACK 61 AUDIO
    TITLE "1Q_t_1669-1678_61"
    INDEX 01 01:19:61
  TRACK 62 AUDIO
    TITLE "1Q_t_1669-1678_62"
    INDEX 01 01:24:56
